<?xml version="1.0" encoding="utf-8"?>
<!-- Generator: Adobe Illustrator 19.0.0, SVG Export Plug-In . SVG Version: 6.00 Build 0)  -->
<svg version="1.1" id="Layer_1" xmlns="http://www.w3.org/2000/svg" xmlns:xlink="http://www.w3.org/1999/xlink" x="0px" y="0px"
	 viewBox="0 0 172.9 45.9" style="enable-background:new 0 0 172.9 45.9;" xml:space="preserve">
<style type="text/css">
	.st0{fill:#068FBF;}
	.st1{fill:url(#XMLID_54_);}
	.st2{fill:#33CAFF;}
	.st3{fill:url(#XMLID_55_);}
	.st4{fill:#E6E7E8;}
	.st5{fill:url(#XMLID_56_);}
	.st6{fill:#2B3990;}
	.st7{fill:url(#XMLID_57_);}
	.st8{fill:#D1D3D4;}
</style>
<g id="XMLID_141_">
	<path id="XMLID_4559_" class="st0" d="M32,15.1c0,0,0-0.1-0.1-0.1c-0.2-0.3-0.4-0.6-0.6-1c0-0.1-0.1-0.1-0.1-0.2
		c-0.1-0.1-0.2-0.3-0.3-0.4c-0.1-0.1-0.2-0.2-0.3-0.4c-0.1-0.1-0.2-0.2-0.3-0.3c-0.1-0.1-0.3-0.3-0.4-0.4c-0.1-0.1-0.1-0.2-0.2-0.3
		c-0.2-0.2-0.4-0.5-0.7-0.7L5.8,34.5l-3.4,7.2l32.3-19.1C34.3,20,33.4,17.5,32,15.1z"/>
	<linearGradient id="XMLID_54_" gradientUnits="userSpaceOnUse" x1="2.432" y1="26.5539" x2="34.7273" y2="26.5539">
		<stop  offset="0" style="stop-color:#2B2728;stop-opacity:0.4"/>
		<stop  offset="0.158" style="stop-color:#1A1718;stop-opacity:0.3368"/>
		<stop  offset="0.3612" style="stop-color:#0B0A0A;stop-opacity:0.2555"/>
		<stop  offset="0.6059" style="stop-color:#030202;stop-opacity:0.1577"/>
		<stop  offset="1" style="stop-color:#000000;stop-opacity:0"/>
	</linearGradient>
	<path id="XMLID_4558_" class="st1" d="M32,15.1c0,0,0-0.1-0.1-0.1c-0.2-0.3-0.4-0.6-0.6-1c0-0.1-0.1-0.1-0.1-0.2
		c-0.1-0.1-0.2-0.3-0.3-0.4c-0.1-0.1-0.2-0.2-0.3-0.4c-0.1-0.1-0.2-0.2-0.3-0.3c-0.1-0.1-0.3-0.3-0.4-0.4c-0.1-0.1-0.1-0.2-0.2-0.3
		c-0.2-0.2-0.4-0.5-0.7-0.7L5.8,34.5l-3.4,7.2l32.3-19.1C34.3,20,33.4,17.5,32,15.1z"/>
	<path id="XMLID_4557_" class="st2" d="M34.7,22.7c-0.6-4.2-2.5-8.2-5.7-11.4L5.9,34.6L34.7,22.7z"/>
	<linearGradient id="XMLID_55_" gradientUnits="userSpaceOnUse" x1="14.056" y1="16.131" x2="22.2009" y2="44.5358">
		<stop  offset="0" style="stop-color:#2B2728;stop-opacity:0.4"/>
		<stop  offset="0.158" style="stop-color:#1A1718;stop-opacity:0.3368"/>
		<stop  offset="0.3612" style="stop-color:#0B0A0A;stop-opacity:0.2555"/>
		<stop  offset="0.6059" style="stop-color:#030202;stop-opacity:0.1577"/>
		<stop  offset="1" style="stop-color:#000000;stop-opacity:0"/>
	</linearGradient>
	<path id="XMLID_4556_" class="st3" d="M32,15.1c0,0,0-0.1-0.1-0.1c-0.2-0.3-0.4-0.6-0.6-1c0-0.1-0.1-0.1-0.1-0.2
		c-0.1-0.1-0.2-0.3-0.3-0.4c-0.1-0.1-0.2-0.2-0.3-0.4c-0.1-0.1-0.2-0.2-0.3-0.3c-0.1-0.1-0.3-0.3-0.4-0.4c-0.1-0.1-0.1-0.2-0.2-0.3
		c-0.2-0.2-0.4-0.5-0.7-0.7L5.8,34.5l-3.4,7.2l32.3-19.1C34.3,20,33.4,17.5,32,15.1z"/>
	<path id="XMLID_4555_" class="st4" d="M3,30.8c0,0,0,0.1,0.1,0.1c0.2,0.3,0.4,0.6,0.6,1c0,0.1,0.1,0.1,0.1,0.2
		c0.1,0.1,0.2,0.3,0.3,0.4c0.1,0.1,0.2,0.2,0.3,0.4c0.1,0.1,0.2,0.2,0.3,0.3c0.1,0.1,0.3,0.3,0.4,0.4c0.1,0.1,0.1,0.2,0.2,0.3
		c0.2,0.2,0.4,0.5,0.7,0.7l23.2-23.2l3.4-7.2L0.2,23.2C0.6,25.9,1.5,28.5,3,30.8z"/>
	
		<linearGradient id="XMLID_56_" gradientUnits="userSpaceOnUse" x1="-374.2291" y1="277.4056" x2="-341.9335" y2="277.4056" gradientTransform="matrix(-1 0 0 -1 -341.7045 296.7663)">
		<stop  offset="0" style="stop-color:#2B2728;stop-opacity:0.4"/>
		<stop  offset="0.158" style="stop-color:#1A1718;stop-opacity:0.3368"/>
		<stop  offset="0.3612" style="stop-color:#0B0A0A;stop-opacity:0.2555"/>
		<stop  offset="0.6059" style="stop-color:#030202;stop-opacity:0.1577"/>
		<stop  offset="1" style="stop-color:#000000;stop-opacity:0"/>
	</linearGradient>
	<path id="XMLID_4554_" class="st5" d="M3,30.8c0,0,0,0.1,0.1,0.1c0.2,0.3,0.4,0.6,0.6,1c0,0.1,0.1,0.1,0.1,0.2
		c0.1,0.1,0.2,0.3,0.3,0.4c0.1,0.1,0.2,0.2,0.3,0.4c0.1,0.1,0.2,0.2,0.3,0.3c0.1,0.1,0.3,0.3,0.4,0.4c0.1,0.1,0.1,0.2,0.2,0.3
		c0.2,0.2,0.4,0.5,0.7,0.7l23.2-23.2l3.4-7.2L0.2,23.2C0.6,25.9,1.5,28.5,3,30.8z"/>
	<path id="XMLID_4553_" class="st6" d="M34.6,22.8l-32.2,19c0,0,0,0,0.1,0c7.9,6,19.3,5.4,26.5-1.8c4.7-4.7,6.6-11.2,5.7-17.3
		L34.6,22.8z"/>
	<linearGradient id="XMLID_57_" gradientUnits="userSpaceOnUse" x1="15.557" y1="29.0987" x2="27.5004" y2="41.4665">
		<stop  offset="0" style="stop-color:#2B2728;stop-opacity:0.4"/>
		<stop  offset="0.4289" style="stop-color:#171515;stop-opacity:0.2284"/>
		<stop  offset="1" style="stop-color:#000000;stop-opacity:0"/>
	</linearGradient>
	<path id="XMLID_4552_" class="st7" d="M34.6,22.8l-32.2,19c0,0,0,0,0.1,0c7.9,6,19.3,5.4,26.5-1.8c4.7-4.7,6.6-11.2,5.7-17.3
		L34.6,22.8z"/>
	<path id="XMLID_4551_" class="st8" d="M0.2,23.2C0.2,23.2,0.2,23.2,0.2,23.2L32.5,4.1c0,0,0,0-0.1,0c-7.9-6-19.3-5.4-26.5,1.8
		C1.2,10.6-0.7,17.1,0.2,23.2L0.2,23.2z"/>
	<g id="XMLID_4531_">
		<path id="XMLID_4532_" class="st6" d="M112.9,33.7l0.6-0.7c1.4,1.3,2.7,1.9,4.6,1.9c1.9,0,3.2-1.1,3.2-2.5v0
			c0-1.4-0.7-2.1-3.6-2.7c-3.1-0.6-4.3-1.7-4.3-3.6v0c0-1.9,1.7-3.4,4.1-3.4c1.9,0,3.1,0.5,4.4,1.6l-0.6,0.7c-1.2-1-2.4-1.4-3.8-1.4
			c-1.9,0-3.1,1.1-3.1,2.4v0c0,1.4,0.7,2.2,3.7,2.8c3,0.6,4.2,1.7,4.2,3.5v0c0,2.1-1.8,3.5-4.2,3.5C116,35.7,114.5,35.1,112.9,33.7z
			 M125.4,22.8h9.1v0.9h-8.1v5h7.3v0.9h-7.3v5.1h8.2v0.9h-9.2V22.8z M137.7,22.8h0.9l8.8,11.1V22.8h0.9v12.8h-0.7l-9-11.4v11.4h-0.9
			V22.8z M151.3,33.7l0.6-0.7c1.4,1.3,2.7,1.9,4.6,1.9c1.9,0,3.2-1.1,3.2-2.5v0c0-1.4-0.7-2.1-3.6-2.7c-3.1-0.6-4.3-1.7-4.3-3.6v0
			c0-1.9,1.7-3.4,4.1-3.4c1.9,0,3.1,0.5,4.4,1.6l-0.6,0.7c-1.2-1-2.4-1.4-3.8-1.4c-1.9,0-3.1,1.1-3.1,2.4v0c0,1.4,0.7,2.2,3.7,2.8
			c3,0.6,4.2,1.7,4.2,3.5v0c0,2.1-1.8,3.5-4.2,3.5C154.4,35.7,152.8,35.1,151.3,33.7z M163.8,22.8h9.1v0.9h-8.1v5h7.3v0.9h-7.3v5.1
			h8.2v0.9h-9.2V22.8z M44.1,33.7l1.7-2c1.2,0.9,2.4,1.6,3.8,1.6c1.1,0,1.8-0.5,1.8-1.2v0c0-0.7-0.4-1.1-2.6-1.6
			c-2.6-0.7-4.2-1.4-4.2-3.9v0c0-2.3,1.9-3.8,4.5-3.8c1.9,0,3.4,0.6,4.7,1.6l-1.5,2.1c-1.1-0.8-2.2-1.3-3.3-1.3
			c-1.1,0-1.6,0.5-1.6,1.1v0c0,0.8,0.5,1.1,2.8,1.7c2.6,0.7,4.1,1.6,4.1,3.8v0c0,2.5-1.9,4-4.7,4C47.6,35.8,45.7,35.1,44.1,33.7z
			 M56.7,22.8h3l2.6,4.2l-0.7,3.6l1.5-2.4l3.4-5.4h3v12.8h-2.8v-8.3l-3.6,5.5H63l-3.6-5.4v8.3h-2.8V22.8z M76.9,22.7h2.6l5.5,12.9
			H82l-1.2-2.9h-5.4l-1.2,2.9h-2.9L76.9,22.7z M79.8,30.2l-1.7-4.1l-1.7,4.1H79.8z M86.9,22.8h5.8c1.6,0,2.9,0.5,3.7,1.3
			c0.7,0.7,1.1,1.7,1.1,2.9v0c0,2.1-1.1,3.4-2.7,4l3.1,4.6h-3.3l-2.7-4.1h0h-2.2v4.1h-2.8V22.8z M92.6,29c1.4,0,2.2-0.7,2.2-1.8v0
			c0-1.2-0.8-1.8-2.2-1.8h-2.8V29H92.6z M103.1,25.4h-3.9v-2.6h10.6v2.6h-3.9v10.2h-2.8V25.4z"/>
	</g>
</g>
</svg>
